<?xml version="1.0" encoding="UTF-8" standalone="no"?>
<svg
   viewBox="0 0 256 194.02319"
   version="1.1"
   id="svg1"
   sodipodi:docname="discord-logo.svg"
   width="256"
   height="194.02319"
   inkscape:version="1.3.2 (091e20e, 2023-11-25, custom)"
   xmlns:inkscape="http://www.inkscape.org/namespaces/inkscape"
   xmlns:sodipodi="http://sodipodi.sourceforge.net/DTD/sodipodi-0.dtd"
   xmlns="http://www.w3.org/2000/svg"
   xmlns:svg="http://www.w3.org/2000/svg">
  <defs
     id="defs1" />
  <sodipodi:namedview
     id="namedview1"
     pagecolor="#ffffff"
     bordercolor="#000000"
     borderopacity="0.25"
     inkscape:showpageshadow="2"
     inkscape:pageopacity="0.0"
     inkscape:pagecheckerboard="0"
     inkscape:deskcolor="#d1d1d1"
     inkscape:zoom="7.5498132"
     inkscape:cx="95.167918"
     inkscape:cy="100.0687"
     inkscape:window-width="3200"
     inkscape:window-height="1711"
     inkscape:window-x="-9"
     inkscape:window-y="-9"
     inkscape:window-maximized="1"
     inkscape:current-layer="svg1" />
  <path
     fill="#5865f2"
     d="M 216.85637,16.249141 A 211.72208,211.72208 0 0 0 164.04163,0 a 145.09456,145.09456 0 0 0 -6.76544,13.752371 196.68105,196.68105 0 0 0 -58.613692,0 A 145.71875,145.71875 0 0 0 91.897056,0 213.21209,213.21209 0 0 0 39.042043,16.289412 C 5.6175395,65.741569 -3.4433199,113.96548 1.0871098,161.50479 v 0 A 212.88993,212.88993 0 0 0 65.862187,194.0232 156.45084,156.45084 0 0 0 79.735369,171.65295 137.76533,137.76533 0 0 1 57.888631,161.22289 c 1.832307,-1.32892 3.624343,-2.69812 5.355974,-4.02705 a 152.16203,152.16203 0 0 0 129.509885,0 c 1.75176,1.42961 3.5438,2.7988 5.35597,4.02705 a 138.28885,138.28885 0 0 1 -21.88701,10.45019 155.04137,155.04137 0 0 0 13.87318,22.35012 211.92343,211.92343 0 0 0 64.81535,-32.49828 v 0 c 5.3157,-55.1303 -9.08099,-102.911227 -38.05561,-145.275779 z M 85.473914,132.26841 c -12.624798,0 -23.054854,-11.45695 -23.054854,-25.55162 0,-14.094672 10.067622,-25.652301 23.014583,-25.652301 12.946962,0 23.296477,11.557629 23.074987,25.652301 -0.22149,14.09467 -10.168296,25.55162 -23.034716,25.55162 z m 85.051266,0 c -12.64494,0 -23.03472,-11.45695 -23.03472,-25.55162 0,-14.094672 10.06762,-25.652301 23.03472,-25.652301 12.96709,0 23.23607,11.557629 23.01458,25.652301 -0.22149,14.09467 -10.14816,25.55162 -23.01458,25.55162 z"
     id="path1"
     style="stroke-width:2.01352" />
</svg>
